<?xml version="1.0" encoding="UTF-8" standalone="no"?>
<svg width="34px" height="34px" viewBox="0 0 34 34" version="1.1" xmlns="http://www.w3.org/2000/svg" xmlns:xlink="http://www.w3.org/1999/xlink">
	<title>Tint</title>
	<g id="Page-1" stroke="none" stroke-width="1" fill="none" fill-rule="evenodd">
		<g id="logomark">
			<rect id="bg" fill="#000000" opacity="0.4" x="0" y="0" width="34" height="34" rx="7"></rect>
			<path d="M15.1563671,10.5734498 L15.1563671,6.62181507 C15.1563671,6.27835369 14.9068015,6 14.5988617,6 L11.2364479,6 C11.105926,6 11,6.11796198 11,6.26353986 L11,17.6414754 L11,18.5407297 L11,19.7529033 C11,20.2437715 11.0406651,20.7238493 11.1144526,21.191125 C11.7247571,25.0597292 14.7506999,28 18.394326,28 L22.7884528,28 C22.9191387,28 23.0249007,27.8818551 23.0249007,27.7362773 L23.0249007,23.6279085 C23.0249007,23.4823306 22.9191387,23.3643687 22.7884528,23.3643687 L18.394326,23.3643687 C17.0646755,23.3643687 15.9232651,22.4695036 15.4247896,21.191125 C15.2527828,20.750185 15.1563671,20.2642548 15.1563671,19.7527204 L15.1563671,18.5410955 L15.1563671,15.6006418 C15.1565311,15.4552468 15.2622932,15.3374677 15.3926511,15.3374677 L22.8635521,15.3374677 C22.994074,15.3374677 23.1,15.2193228 23.1,15.0737449 L23.1,10.8371726 C23.1,10.6914118 22.994074,10.5734498 22.8635521,10.5734498 L15.1563671,10.5734498 Z" id="t" fill="#C94294"></path>
		</g>
	</g>
</svg>
