<?xml version="1.0" encoding="UTF-8"?>
<svg viewBox="0 0 64 24" version="1.1" xmlns="http://www.w3.org/2000/svg">
	<title>Tint</title>
	<path d="M38.0072789,0 L34.7070496,0 L27.2875661,0 C27.1288264,0 27,0.128113879 27,0.28622031 L27,23.7135811 C27,23.8716875 27.1288264,24 27.2875661,24 L31.9073686,24 C32.0661083,24 32.1947353,23.8716875 32.1947353,23.7135811 L32.1947353,5.32079782 C32.1947353,5.16269138 32.3235617,5.03437888 32.4823013,5.03437888 L34.7070496,5.03437888 L38.0072789,5.03437888 C38.5648619,5.03437888 39.0947253,5.15156832 39.575531,5.35972854 C40.9694885,5.96375072 41.9452587,7.34618886 41.9452587,8.95684846 L41.9452587,23.6226103 C41.9452587,23.7809153 42.0738857,23.9090292 42.2328248,23.9090292 L46.7126334,23.9090292 C46.871373,23.9090292 47,23.7809153 47,23.6226103 L47,8.95684846 C47,4.54317636 43.7940971,0.877729041 39.575531,0.13844244 C39.0660086,0.0490606637 38.5425267,0 38.0072789,0 Z" fill="#18C9E6"></path>
	<path d="M14.323225,4.98921799 L5.01810764,4.98921799 L5.01810764,0.678343711 C5.01810764,0.303658567 4.71660149,0 4.34501446,0 L0.285470697,0 C0.127887705,0 0,0.128685792 0,0.287498026 L0,15.0031673 C0,15.5386598 0.0490962086,16.062381 0.138182071,16.5721364 C0.875021137,20.7924318 4.52833337,24 8.92739325,24 L14.2325553,24 C14.3903363,24 14.518026,23.8711147 14.518026,23.7123025 L14.518026,19.2304457 C14.518026,19.0716334 14.3903363,18.9429476 14.2325553,18.9429476 L8.92739325,18.9429476 C7.32206601,18.9429476 5.94420468,17.9667312 5.34218221,16.5721364 C5.13451317,16.0911109 5.01790968,15.5610052 5.01790968,15.0029678 L5.01790968,13.6811951 C5.01790968,13.6809956 5.01810764,13.6807961 5.01810764,13.6807961 L5.01810764,10.4734274 C5.01830561,10.3148147 5.14599535,10.1863284 5.30338037,10.1863284 L14.323225,10.1863284 C14.4808079,10.1863284 14.6086957,10.0574431 14.6086957,9.89863084 L14.6086957,5.27691553 C14.6086957,5.11790378 14.4808079,4.98921799 14.323225,4.98921799" fill="#FF8006"></path>
	<path d="M22.7157455,0 L18.2844518,0 C18.1274313,0 18,0.128136149 18,0.286468723 L18,8.27401932 L18,16.901456 L18,23.7135313 C18,23.8716652 18.1274313,24 18.2844518,24 L22.7157455,24 C22.872766,24 23,23.8716652 23,23.7135313 L23,16.901456 L23,8.27401932 L23,0.286468723 C23,0.128136149 22.872766,0 22.7157455,0" fill="#FFD100"></path>
	<path d="M63.7264239,4.98921799 L54.8090198,4.98921799 L54.8090198,0.678343711 C54.8090198,0.303658567 54.5202661,0 54.1639722,0 L50.2735761,0 C50.1225591,0 50,0.128685792 50,0.287498026 L50,12.6997913 L50,13.6807961 L50,15.0031673 C50,15.5386598 50.0470505,16.062381 50.1324245,16.5721364 C50.8385619,20.7924318 54.3396528,24 58.5554185,24 L63.6395322,24 C63.790739,24 63.9131083,23.8711147 63.9131083,23.7123025 L63.9131083,19.2304457 C63.9131083,19.0716334 63.790739,18.9429476 63.6395322,18.9429476 L58.5554185,18.9429476 C57.0169799,18.9429476 55.6963398,17.9667312 55.1195913,16.5721364 C54.9205751,16.0911109 54.8090198,15.5610052 54.8090198,15.0029678 L54.8090198,13.6811951 L54.8090198,13.6807961 L54.8090198,10.4734274 C54.8092095,10.3148147 54.9315789,10.1863284 55.0824062,10.1863284 L63.7264239,10.1863284 C63.8774409,10.1863284 64,10.0574431 64,9.89863084 L64,5.27691553 C64,5.11790378 63.8774409,4.98921799 63.7264239,4.98921799" fill="#C94294"></path>
</svg>
